<svg id="youtube" xmlns="http://www.w3.org/2000/svg" width="17.737" height="12.464" viewBox="0 0 17.737 12.464">
  <path id="Path_38160" data-name="Path 38160" d="M18.365,5.951A2.241,2.241,0,0,0,16.8,4.339,58.057,58.057,0,0,0,9.868,4a53.051,53.051,0,0,0-6.933.371A2.241,2.241,0,0,0,1.371,5.983,23.38,23.38,0,0,0,1,10.248a23.38,23.38,0,0,0,.371,4.3,2.241,2.241,0,0,0,1.564,1.548,53.051,53.051,0,0,0,6.933.371,53.051,53.051,0,0,0,6.933-.371,2.241,2.241,0,0,0,1.564-1.612,23.38,23.38,0,0,0,.371-4.233,23.38,23.38,0,0,0-.371-4.3Z" transform="translate(-0.999 -4)" fill="#fff"/>
  <path id="Path_38161" data-name="Path 38161" d="M9.75,13.753l4.636-2.636L9.75,8.48Z" transform="translate(-2.695 -4.868)" fill="#082742"/>
</svg>
